<?xml version="1.0" encoding="UTF-8"?>
<svg id="Layer_1" xmlns="http://www.w3.org/2000/svg" xmlns:xlink="http://www.w3.org/1999/xlink" viewBox="0 0 1920 1080">
  <defs>
    <style>
      .cls-1 {
        fill: none;
        stroke: url(#linear-gradient);
        stroke-miterlimit: 10;
        stroke-width: 5px;
      }

      .cls-2 {
        opacity: .99;
      }
    </style>
    <linearGradient id="linear-gradient" x1="984.03" y1="999.46" x2="984.03" y2="81.46" gradientUnits="userSpaceOnUse">
      <stop offset="0" stop-color="#000"/>
      <stop offset="1" stop-color="#fff"/>
    </linearGradient>
  </defs>
  <g class="cls-2">
    <path class="cls-1" d="M1396.18,907.5c4.38-5.52,5.62-13.34,2-19.43-50.58-84.39-39.72-215.46,8.38-303.09,2.48-4.48,1.52-9.91-1.14-14-1.05-1.43-2.19-2.67-3.71-3.71l-90.77-62.77c-.76-.57-1.62-1.05-2.38-1.33h0c-6-2.57-13.05-.76-17.15,4.67-61.72,81.82-158.4,119.54-280.8,94.58-1.91-.38-3.81-.29-5.52.29-2.1.67-4,1.91-5.33,3.81l-71.34,90.2c-1.14,1.62-1.91,3.43-2,5.33-.38,3.71,1.14,7.43,4.38,9.81,64.2,48.58,159.45,39.43,203.93,11.33,0,0-75.15,118.02-209.46,118.3-111.35.19-196.98-85.92-196.98-198.03,0-74.58,26.1-153.07,87.73-212.03,48.86,50.2,132.59,108.68,235.37,113.25,94.01,4.1,181.45-26.19,208.12-101.35,28.38-79.73-2.19-147.16-58.39-190.6-73.15-56.48-231.18-69.06-347.95-22.86,0,0-5.91-20.67,7.91-56.77,2.19-5.81-.38-12.38-5.43-16l-101.16-71.25c-5.24-3.71-12.29-1.71-15.62,3.71-25.81,42.29-52.77,132.5-16.86,217.75-109.92,91.06-161.93,222.6-161.93,346.81,0,190.98,142.97,337.48,357.57,337.48,136.31,0,263.08-73.53,328.9-184.88,0,0-33.34,117.73,59.15,186.31,7.05,5.24,16.48,5.62,21.91-1.24l68.58-84.3h0ZM1113.76,386.76c-9.62,38.48-121.35,21.24-171.07-34,76.58-34.77,182.69-12.76,171.07,34Z"/>
  </g>
</svg>